<?xml version="1.0" encoding="UTF-8"?>
<svg width="19px" height="15px" viewBox="0 0 19 15" version="1.1" xmlns="http://www.w3.org/2000/svg" xmlns:xlink="http://www.w3.org/1999/xlink">
    <!-- Generator: Sketch 56.3 (81716) - https://sketch.com -->
    <title>add Playlist</title>
    <desc>Created with Sketch.</desc>
    <g id="Мобилка" stroke="none" stroke-width="1" fill="none" fill-rule="evenodd">
        <g id="Музыка-Плейлисты-320" transform="translate(-35.000000, -32.000000)" fill="#3C4147" fill-rule="nonzero">
            <g id="add-Playlist" transform="translate(20.000000, 15.000000)">
                <path d="M18,26.3103448 L18,22.6896552 L20,22.6896552 L20,26.3103448 L23,26.3103448 L23,28.3793103 L20,28.3793103 L20,32 L18,32 L18,28.3793103 L15,28.3793103 L15,26.3103448 L18,26.3103448 Z M15,17 L34,17 L34,19.0689655 L15,19.0689655 L15,17 Z M26,23.2068966 L34,23.2068966 L34,25.2758621 L26,25.2758621 L26,23.2068966 Z M26,29.4137931 L34,29.4137931 L34,31.4827586 L26,31.4827586 L26,29.4137931 Z"></path>
            </g>
        </g>
    </g>
</svg>