<?xml version="1.0" encoding="UTF-8"?>
<svg width="20px" height="18px" viewBox="0 0 20 18" version="1.1" xmlns="http://www.w3.org/2000/svg" xmlns:xlink="http://www.w3.org/1999/xlink">
    <!-- Generator: Sketch 57.1 (83088) - https://sketch.com -->
    <title>ad</title>
    <desc>Created with Sketch.</desc>
    <g id="Мобилка" stroke="none" stroke-width="1" fill="none" fill-rule="evenodd">
        <g id="Музыка-Меню" transform="translate(-43.000000, -302.000000)" fill="#8E99A6" fill-rule="nonzero">
            <g id="Menu">
                <path d="M60,302 C61.6568542,302 63,303.343146 63,305 L63,317 C63,318.656854 61.6568542,320 60,320 L46,320 C44.3431458,320 43,318.656854 43,317 L43,305 C43,303.343146 44.3431458,302 46,302 L60,302 Z M60,304 L46,304 C45.4477153,304 45,304.447715 45,305 L45,317 C45,317.552285 45.4477153,318 46,318 L60,318 C60.5522847,318 61,317.552285 61,317 L61,305 C61,304.447715 60.5522847,304 60,304 Z M49.54,309.05 C51.07,309.05 52.05,309.58 52.05,311.29 L52.05,312.63 C52.05,312.86 52.21,312.93 52.38,312.93 C52.44,312.93 52.51,312.92 52.57,312.9 L52.57,313.95 C52.34,314.04 52.03,314.1 51.71,314.1 C51.18,314.1 50.79,313.91 50.57,313.57 C50.11,313.93 49.58,314.15 48.9,314.15 C47.98,314.15 47.23,313.6 47.23,312.67 C47.23,311.46 48.38,311.09 49.31,311.09 C49.67,311.09 50.03,311.13 50.35,311.2 L50.35,311.03 C50.35,310.69 50.03,310.43 49.35,310.43 C48.72,310.43 48.14,310.61 47.67,310.8 L47.67,309.37 C48.07,309.24 48.83,309.05 49.54,309.05 Z M58.39,307 L58.39,314 L56.89,314 L56.89,313.35 C56.65,313.75 56.12,314.15 55.26,314.15 C53.65,314.15 52.94,312.84 52.94,311.6 C52.94,310.36 53.65,309.05 55.26,309.05 C55.93,309.05 56.4,309.29 56.69,309.59 L56.69,307 L58.39,307 Z M49.74,312.01 C49.34,312.01 48.98,312.15 48.98,312.53 C48.98,312.78 49.2,313 49.56,313 C49.84,313 50.09,312.94 50.35,312.75 L50.35,312.1 C50.2,312.05 49.97,312.01 49.74,312.01 Z M55.72,310.45 C55,310.45 54.69,311.04 54.69,311.6 C54.69,312.16 55,312.75 55.72,312.75 C56.19,312.75 56.54,312.46 56.69,312.15 L56.69,311.05 C56.54,310.74 56.19,310.45 55.72,310.45 Z" id="ad"></path>
            </g>
        </g>
    </g>
</svg>