<?xml version="1.0" encoding="UTF-8"?>
<svg width="20px" height="10px" viewBox="0 0 20 10" version="1.1" xmlns="http://www.w3.org/2000/svg" xmlns:xlink="http://www.w3.org/1999/xlink">
    <!-- Generator: Sketch 56.3 (81716) - https://sketch.com -->
    <title>Path</title>
    <desc>Created with Sketch.</desc>
    <g id="Symbols" stroke="none" stroke-width="1" fill="none" fill-rule="evenodd">
        <g id="back" transform="translate(-15.000000, -19.000000)" fill="#3C4147">
            <g id="Path">
                <path d="M29.7069767,18.345201 L25.7116279,14.295852 C25.3209302,13.9013827 24.6846512,13.9013827 24.2883721,14.295852 L20.2930233,18.345201 C19.9023256,18.7396703 19.9023256,19.3820919 20.2930233,19.7821966 C20.6893023,20.1766659 21.3255814,20.1766659 21.7162791,19.7765613 L23.9981395,17.4628776 L23.9981395,32.9856502 C23.9981395,33.5435426 24.4502326,34 25.0027907,34 C25.5553488,34 26.0074419,33.5435426 26.0074419,32.9856502 L26.0074419,17.4628776 L28.2893023,19.7821966 C28.4846512,19.9794312 29.5116279,19.9794312 29.7069767,19.7821966 C30.0976744,19.3877272 30.0976744,18.7453056 29.7069767,18.345201 Z" transform="translate(25.000000, 24.000000) rotate(-90.000000) translate(-25.000000, -24.000000) "></path>
            </g>
        </g>
    </g>
</svg>