<?xml version="1.0" encoding="UTF-8"?>
<svg width="40px" height="40px" viewBox="0 0 40 40" version="1.1" xmlns="http://www.w3.org/2000/svg" xmlns:xlink="http://www.w3.org/1999/xlink">
    <!-- Generator: Sketch 56.3 (81716) - https://sketch.com -->
    <title>check</title>
    <desc>Created with Sketch.</desc>
    <g id="Мобилка" stroke="none" stroke-width="1" fill="none" fill-rule="evenodd">
        <g id="Музыка-Создать-аккаунт-320-Copy-2" transform="translate(-140.000000, -97.000000)" fill="#84CC45" fill-rule="nonzero">
            <g id="Sign-up" transform="translate(0.000000, 67.000000)">
                <path d="M159.9996,30 C171.0279,30 180,38.972 180,50 C180,61.028 171.0279,70 159.9996,70 C148.9713,70 140,61.028 140,50 C140,38.972 148.9713,30 159.9996,30 Z M159.9996,67.377 C169.5812,67.377 177.3767,59.5816 177.3767,50 C177.3767,40.4184 169.5813,32.6231 159.9996,32.6231 C150.4179,32.6231 142.623,40.4183 142.623,50 C142.623,59.5816 150.418,67.377 159.9996,67.377 Z M167.75646,43.3881017 C168.269249,42.8706496 169.101517,42.8706496 169.614807,43.3880007 C170.128398,43.9050488 170.128398,44.7438383 169.614807,45.2608864 L158.353993,56.6084774 C158.35269,56.6097902 158.352089,56.6109011 158.351287,56.6120119 C158.094742,56.870738 157.757626,57 157.421412,57 C157.085198,57 156.748984,56.870738 156.492339,56.6124159 L151.385193,51.466676 C150.871602,50.9493249 150.871602,50.1111414 151.385193,49.5935883 C151.898583,49.0762372 152.73025,49.0765401 153.24364,49.5932853 L157.421412,53.8023804 L167.75646,43.3881017 Z" id="check"></path>
            </g>
        </g>
    </g>
</svg>