<?xml version="1.0" encoding="UTF-8"?>
<svg width="12px" height="9px" viewBox="0 0 12 9" version="1.1" xmlns="http://www.w3.org/2000/svg" xmlns:xlink="http://www.w3.org/1999/xlink">
    <!-- Generator: Sketch 56.3 (81716) - https://sketch.com -->
    <title>right</title>
    <desc>Created with Sketch.</desc>
    <g id="Мобилка" stroke="none" stroke-width="1" fill="none" fill-rule="evenodd">
        <g id="Музыка-Акцивация-и-оплата-320" transform="translate(-34.000000, -822.000000)" fill="#E1E6EC" fill-rule="nonzero">
            <g id="Points" transform="translate(0.000000, 258.000000)">
                <g id="Group-Copy" transform="translate(0.000000, 320.000000)">
                    <g id="3" transform="translate(20.000000, 207.000000)">
                        <path d="M24.0518511,43.2834396 C24.0731535,43.5532292 23.9798789,43.8302518 23.7724447,44.0355062 C23.7697865,44.0381364 23.7671129,44.0407509 23.7644239,44.0433496 L20.9762196,46.7379688 C20.5923847,47.1089204 19.9815672,47.1020945 19.6061179,46.7226578 C19.236337,46.3489497 19.2395206,45.7462328 19.6132288,45.3764519 C19.6158869,45.3738216 19.6185606,45.3712071 19.6212495,45.3686084 L21.8230335,43.2407265 L16.4272652,37.8262268 C16.05099,37.4486454 16.0499066,36.8381839 16.4248392,36.4592693 C16.7963899,36.0837725 17.4019915,36.0805735 17.7774882,36.4521242 C17.7790781,36.4536973 17.7806623,36.455276 17.7822411,36.4568602 L23.7771266,42.472557 C23.9977876,42.6939839 24.0894178,42.9954998 24.0518511,43.2834396 Z" id="right" transform="translate(20.102196, 41.593655) rotate(-270.000000) translate(-20.102196, -41.593655) "></path>
                    </g>
                </g>
            </g>
        </g>
    </g>
</svg>