<?xml version="1.0" encoding="UTF-8"?>
<svg width="15px" height="16px" viewBox="0 0 15 16" version="1.1" xmlns="http://www.w3.org/2000/svg" xmlns:xlink="http://www.w3.org/1999/xlink">
    <!-- Generator: Sketch 56.3 (81716) - https://sketch.com -->
    <title>date</title>
    <desc>Created with Sketch.</desc>
    <g id="Мобилка" stroke="none" stroke-width="1" fill="none" fill-rule="evenodd">
        <g id="Музыка-Расписание-320" transform="translate(-94.000000, -379.000000)" fill="#3C4147" fill-rule="nonzero">
            <g id="1" transform="translate(0.000000, 266.000000)">
                <path d="M105,115 L106,115 C107.656854,115 109,116.343146 109,118 L109,126 C109,127.656854 107.656854,129 106,129 L97,129 C95.3431458,129 94,127.656854 94,126 L94,118 C94,116.343146 95.3431458,115 97,115 L98,115 L98,113 L99,113 L99,115 L104,115 L104,113 L105,113 L105,115 Z M97,116 C95.8954305,116 95,116.895431 95,118 L95,126 C95,127.104569 95.8954305,128 97,128 L106,128 C107.104569,128 108,127.104569 108,126 L108,118 C108,116.895431 107.104569,116 106,116 L97,116 Z M95,119 L108,119 L108,120 L95,120 L95,119 Z M98,122 L99,122 L99,123 L98,123 L98,122 Z M98,125 L99,125 L99,126 L98,126 L98,125 Z M101,122 L102,122 L102,123 L101,123 L101,122 Z M101,125 L102,125 L102,126 L101,126 L101,125 Z M104,122 L105,122 L105,123 L104,123 L104,122 Z M104,125 L105,125 L105,126 L104,126 L104,125 Z" id="date"></path>
            </g>
        </g>
    </g>
</svg>