<?xml version="1.0" encoding="UTF-8"?>
<svg width="15px" height="21px" viewBox="0 0 15 21" version="1.1" xmlns="http://www.w3.org/2000/svg" xmlns:xlink="http://www.w3.org/1999/xlink">
    <!-- Generator: Sketch 56.3 (81716) - https://sketch.com -->
    <title>Delete treck</title>
    <desc>Created with Sketch.</desc>
    <g id="Мобилка" stroke="none" stroke-width="1" fill="none" fill-rule="evenodd">
        <g id="Музыка-Точки-вещания-320" transform="translate(-173.000000, -255.000000)" fill="#8E99A6" fill-rule="nonzero">
            <g id="Groups" transform="translate(0.000000, 80.000000)">
                <g id="1" transform="translate(0.000000, 45.000000)">
                    <path d="M177.167262,133 L177.167262,132 C177.167262,130.895431 178.062692,130 179.167262,130 L181.167262,130 C182.271831,130 183.167262,130.895431 183.167262,132 L183.167262,133 C185.376401,133 187.167262,134.790861 187.167262,137 L187.167262,147 C187.167262,149.209139 185.376401,151 183.167262,151 L177.167262,151 C174.958123,151 173.167262,149.209139 173.167262,147 L173.167262,137 C173.167262,134.790861 174.958123,133 177.167262,133 Z M179.167262,133 L181.167262,133 L181.167262,132 L179.167262,132 L179.167262,133 Z M177.167262,135 C176.062692,135 175.167262,135.895431 175.167262,137 L175.167262,147 C175.167262,148.104569 176.062692,149 177.167262,149 L183.167262,149 C184.271831,149 185.167262,148.104569 185.167262,147 L185.167262,137 C185.167262,135.895431 184.271831,135 183.167262,135 L177.167262,135 Z M178.167262,141 C178.719547,141 179.167262,141.447715 179.167262,142 L179.167262,146 C179.167262,146.552285 178.719547,147 178.167262,147 C177.614977,147 177.167262,146.552285 177.167262,146 L177.167262,142 C177.167262,141.447715 177.614977,141 178.167262,141 Z M185.167262,137 L185.167262,139 L175.167262,139 L175.167262,137 L185.167262,137 Z M182.167262,141 C182.719547,141 183.167262,141.447715 183.167262,142 L183.167262,146 C183.167262,146.552285 182.719547,147 182.167262,147 C181.614977,147 181.167262,146.552285 181.167262,146 L181.167262,142 C181.167262,141.447715 181.614977,141 182.167262,141 Z" id="Delete-treck"></path>
                </g>
            </g>
        </g>
    </g>
</svg>