<?xml version="1.0" encoding="UTF-8"?>
<svg width="19px" height="19px" viewBox="0 0 19 19" version="1.1" xmlns="http://www.w3.org/2000/svg" xmlns:xlink="http://www.w3.org/1999/xlink">
    <!-- Generator: Sketch 56.3 (81716) - https://sketch.com -->
    <title>edit</title>
    <desc>Created with Sketch.</desc>
    <g id="Мобилка" stroke="none" stroke-width="1" fill="none" fill-rule="evenodd">
        <g id="Музыка-Точки-вещания-320" transform="translate(-123.000000, -256.000000)" fill="#8E99A6" fill-rule="nonzero">
            <g id="Groups" transform="translate(0.000000, 80.000000)">
                <g id="1" transform="translate(0.000000, 45.000000)">
                    <path d="M129.010408,137.57969 L135.010408,137.57969 L135.010408,148.544156 C135.010408,149.207197 134.747016,149.843082 134.278175,150.311923 L132.010408,152.57969 L129.742641,150.311923 C129.2738,149.843082 129.010408,149.207197 129.010408,148.544156 L129.010408,137.57969 Z M131.010408,139.57969 L131.010408,148.544156 C131.010408,148.676764 131.063086,148.803941 131.156854,148.897709 L132.010408,149.751263 L132.863961,148.897709 C132.957729,148.803941 133.010408,148.676764 133.010408,148.544156 L133.010408,139.57969 L131.010408,139.57969 Z M131.010408,129.57969 L133.010408,129.57969 C134.114977,129.57969 135.010408,130.47512 135.010408,131.57969 L135.010408,135.57969 L129.010408,135.57969 L129.010408,131.57969 C129.010408,130.47512 129.905838,129.57969 131.010408,129.57969 Z M133.010408,131.57969 L131.010408,131.57969 L131.010408,133.57969 L133.010408,133.57969 L133.010408,131.57969 Z" id="edit" transform="translate(132.010408, 141.079690) rotate(-315.000000) translate(-132.010408, -141.079690) "></path>
                </g>
            </g>
        </g>
    </g>
</svg>