<?xml version="1.0" encoding="UTF-8"?>
<svg width="20px" height="20px" viewBox="0 0 20 20" version="1.1" xmlns="http://www.w3.org/2000/svg" xmlns:xlink="http://www.w3.org/1999/xlink">
    <!-- Generator: Sketch 56.3 (81716) - https://sketch.com -->
    <title>Sound settings</title>
    <desc>Created with Sketch.</desc>
    <g id="Мобилка" stroke="none" stroke-width="1" fill="none" fill-rule="evenodd">
        <g id="Музыка-Точки-вещания-320" transform="translate(-71.000000, -622.000000)" stroke="#8E99A6" stroke-width="2">
            <g id="Groups" transform="translate(0.000000, 80.000000)">
                <g id="2" transform="translate(20.000000, 391.000000)">
                    <path d="M68,156.857032 L68,157.21062 L67.3332461,157.446284 C66.5408964,157.726339 66,158.478214 66,159.332738 C66,160.187262 66.5408964,160.939137 67.3332461,161.219193 L68,161.454856 L68,161.808444 L68,161.454856 L68.6667539,161.219193 C69.4591036,160.939137 70,160.187262 70,159.332738 C70,158.478214 69.4591036,157.726339 68.6667539,157.446284 L68,157.21062 L68,156.857032 Z M68,161.808444 L68,165.747385 L68,161.808444 Z M68,165.747385 L68,169.332738 L68,165.747385 Z M61,162.857032 L61,163.21062 L60.3332461,163.446284 C59.5408964,163.726339 59,164.478214 59,165.332738 C59,166.187262 59.5408964,166.939137 60.3332461,167.219193 L61,167.454856 L61,167.808444 L61,167.454856 L61.6667539,167.219193 C62.4591036,166.939137 63,166.187262 63,165.332738 C63,164.478214 62.4591036,163.726339 61.6667539,163.446284 L61,163.21062 L61,162.857032 Z M61,167.808444 L61,168.747385 L61,167.808444 Z M61,168.747385 L61,169.332738 L61,168.747385 Z M54,158.808444 L54,158.454856 L54.6667539,158.219193 C55.4591036,157.939137 56,157.187262 56,156.332738 C56,155.478214 55.4591036,154.726339 54.6667539,154.446284 L54,154.21062 L54,153.857032 L54,154.21062 L53.3332461,154.446284 C52.5408964,154.726339 52,155.478214 52,156.332738 C52,157.187262 52.5408964,157.939137 53.3332461,158.219193 L54,158.454856 L54,158.808444 Z" id="Sound-settings"></path>
                </g>
            </g>
        </g>
    </g>
</svg>