<?xml version="1.0" encoding="UTF-8"?>
<svg width="17px" height="20px" viewBox="0 0 17 20" version="1.1" xmlns="http://www.w3.org/2000/svg" xmlns:xlink="http://www.w3.org/1999/xlink">
    <!-- Generator: Sketch 56.3 (81716) - https://sketch.com -->
    <title>exit</title>
    <desc>Created with Sketch.</desc>
    <g id="Symbols" stroke="none" stroke-width="1" fill="none" fill-rule="evenodd">
        <g id="Exit" transform="translate(-12.000000, -10.000000)" fill="#3C4147">
            <path d="M18.654799,24.7069767 C18.2546944,25.0976744 17.6122728,25.0976744 17.2178034,24.7069767 C17.0205688,24.5116279 17.0205688,23.4846512 17.2178034,23.2893023 L19.5371224,21.0074419 L13.0143498,21.0074419 C12.4564574,21.0074419 12,20.5553488 12,20.0027907 C12,19.4502326 12.4564574,18.9981395 13.0143498,18.9981395 L19.5371224,18.9981395 L17.2234387,16.7162791 C16.8233341,16.3255814 16.8233341,15.6893023 17.2178034,15.2930233 C17.6179081,14.9023256 18.2603297,14.9023256 18.654799,15.2930233 L22.704148,19.2883721 C23.0986173,19.6846512 23.0986173,20.3209302 22.704148,20.7116279 L18.654799,24.7069767 Z M21,28 L26,28 C26.5522847,28 27,27.5522847 27,27 L27,13 C27,12.4477153 26.5522847,12 26,12 L21,12 L21,10 L26,10 C27.6568542,10 29,11.3431458 29,13 L29,27 C29,28.6568542 27.6568542,30 26,30 L21,30 L21,28 Z" id="exit" transform="translate(20.500000, 20.000000) rotate(-180.000000) translate(-20.500000, -20.000000) "></path>
        </g>
    </g>
</svg>