<?xml version="1.0" encoding="UTF-8"?>
<svg width="26px" height="18px" viewBox="0 0 26 18" version="1.1" xmlns="http://www.w3.org/2000/svg" xmlns:xlink="http://www.w3.org/1999/xlink">
    <!-- Generator: Sketch 56.3 (81716) - https://sketch.com -->
    <title>Finance</title>
    <desc>Created with Sketch.</desc>
    <g id="Мобилка" stroke="none" stroke-width="1" fill="none" fill-rule="evenodd">
        <g id="Музыка-Финансы-320" transform="translate(-20.000000, -292.000000)" fill="#FFCF60" fill-rule="nonzero">
            <g id="Points" transform="translate(20.000000, 245.000000)">
                <g id="1" transform="translate(0.000000, 45.000000)">
                    <g id="Finance">
                        <path d="M22.3266875,6.05355838 C24.3521484,6.05355838 26,7.70825381 26,9.7421269 L26,16.2926193 C26,18.3264924 24.3521484,19.9811878 22.3266875,19.9811878 L8.82414062,19.9811878 C6.79867969,19.9811878 5.15082812,18.3264924 5.15082812,16.2926193 L5.15082812,14.9460102 L3,14.9460102 C1.34314575,14.9460102 -1.07189307e-11,13.6028644 -1.08197895e-11,11.9460102 L-1.08197895e-11,5.01539363 C-1.08204363e-11,3.35984128 1.34111456,2.01723541 2.99666589,2.01539548 L13.8460096,2.00333782 C13.847121,2.00333659 13.8482324,2.00333597 13.8493438,2.00333597 C15.506198,2.00333597 16.8493438,3.34648172 16.8493438,5.00333597 L16.8493438,6.05355838 L22.3266875,6.05355838 Z M5.15082813,9.7421269 C5.15082813,9.17931472 5.2775,8.64558376 5.50308594,8.16785787 L2.09902344,8.16785787 L2.09902344,11.2573553 C2.09902344,12.1290152 2.80525781,12.8381827 3.6733125,12.8381827 L5.15082813,12.8381827 L5.15082813,9.7421269 Z M2.09902344,6.06011675 L8.61290625,6.06011675 C8.68285938,6.05606091 8.75315625,6.05355838 8.82414063,6.05355838 L14.7503203,6.05355838 L14.7503203,4.28661421 L2.09902344,4.28661421 L2.09902344,6.06011675 Z M22.3266875,17.8734467 C23.1947422,17.8734467 23.9008906,17.1642792 23.9008906,16.2926193 L23.9008906,9.7421269 C23.9008906,8.87046701 23.1946562,8.16129949 22.3266016,8.16129949 L15.9139141,8.16129949 C15.8763594,8.16544162 15.8382891,8.16785787 15.7995313,8.16785787 L8.69566406,8.16785787 C7.88767969,8.2337868 7.24985156,8.91395939 7.24985156,9.7421269 L7.24985156,16.2926193 C7.24985156,17.1642792 7.95608594,17.8734467 8.82414063,17.8734467 L22.3266875,17.8734467 Z M10,10 L13,10 C13.5522847,10 14,10.4477153 14,11 C14,11.5522847 13.5522847,12 13,12 L10,12 C9.44771525,12 9,11.5522847 9,11 C9,10.4477153 9.44771525,10 10,10 Z M19.5,16 C18.6715729,16 18,15.3284271 18,14.5 C18,13.6715729 18.6715729,13 19.5,13 C20.3284271,13 21,13.6715729 21,14.5 C21,15.3284271 20.3284271,16 19.5,16 Z M16.5,16 C15.6715729,16 15,15.3284271 15,14.5 C15,13.6715729 15.6715729,13 16.5,13 C17.3284271,13 18,13.6715729 18,14.5 C18,15.3284271 17.3284271,16 16.5,16 Z"></path>
                    </g>
                </g>
            </g>
        </g>
    </g>
</svg>