<?xml version="1.0" encoding="UTF-8"?>
<svg width="20px" height="20px" viewBox="0 0 20 20" version="1.1" xmlns="http://www.w3.org/2000/svg" xmlns:xlink="http://www.w3.org/1999/xlink">
    <!-- Generator: Sketch 57.1 (83088) - https://sketch.com -->
    <title>help</title>
    <desc>Created with Sketch.</desc>
    <g id="Мобилка" stroke="none" stroke-width="1" fill="none" fill-rule="evenodd">
        <g id="Музыка-Меню" transform="translate(-42.000000, -448.000000)" fill="#8E99A6" fill-rule="nonzero">
            <g id="Menu">
                <path d="M52,448 C57.514,448 62,452.485939 62,457.999939 C62,463.513939 57.514,468 52,468 C46.486,468 42,463.513939 42,457.999939 C42,452.485939 46.486,448 52,448 Z M52,449.818182 C47.4885455,449.818182 43.8181818,453.488485 43.8181818,457.999939 C43.8181818,462.511455 47.4885455,466.181818 52,466.181818 C56.5114545,466.181818 60.1818182,462.511455 60.1818182,457.999939 C60.1818182,453.488485 56.5114545,449.818182 52,449.818182 Z M52.0001212,461.939394 C52.6683636,461.939394 53.212,462.482909 53.212,463.15097 C53.212,463.819636 52.6683636,464.363636 52.0001212,464.363636 C51.3318788,464.363636 50.7882424,463.819636 50.7882424,463.15097 C50.7882424,462.482909 51.3318788,461.939394 52.0001212,461.939394 Z M52,452.636364 C53.8389091,452.636364 55.3349697,454.132364 55.3349697,455.971212 C55.3349697,457.494909 54.3073939,458.782303 52.9090909,459.179152 L52.9090909,459.179152 L52.9090909,460.212121 C52.9090909,460.714182 52.5020606,461.121212 52,461.121212 C51.4979394,461.121212 51.0909091,460.714182 51.0909091,460.212121 L51.0909091,460.212121 L51.0909091,458.39697 C51.0909091,457.894909 51.4979394,457.487879 52,457.487879 C52.8363636,457.487879 53.5167879,456.807515 53.5167879,455.971152 C53.5167879,455.134909 52.8363636,454.454545 52,454.454545 C51.1636364,454.454545 50.4832727,455.134909 50.4832727,455.971152 C50.4832727,456.473212 50.0762424,456.880242 49.5741818,456.880242 C49.0721212,456.880242 48.6650909,456.473212 48.6650909,455.971152 C48.6650909,454.132364 50.1610909,452.636364 52,452.636364 Z" id="help"></path>
            </g>
        </g>
    </g>
</svg>