<?xml version="1.0" encoding="UTF-8"?>
<svg width="28px" height="4px" viewBox="0 0 28 4" version="1.1" xmlns="http://www.w3.org/2000/svg" xmlns:xlink="http://www.w3.org/1999/xlink">
    <!-- Generator: Sketch 56.3 (81716) - https://sketch.com -->
    <title>more info</title>
    <desc>Created with Sketch.</desc>
    <g id="Мобилка" stroke="none" stroke-width="1" fill="none" fill-rule="evenodd">
        <g id="Музыка-Главная-320" transform="translate(-35.000000, -599.000000)" fill="#FFFFFF" fill-rule="nonzero">
            <g id="Тренды" transform="translate(20.000000, 522.000000)">
                <g id="1" transform="translate(0.000000, 62.000000)">
                    <path d="M17,19 C15.8954305,19 15,18.1045695 15,17 C15,15.8954305 15.8954305,15 17,15 C18.1045695,15 19,15.8954305 19,17 C19,18.1045695 18.1045695,19 17,19 Z M29,19 C27.8954305,19 27,18.1045695 27,17 C27,15.8954305 27.8954305,15 29,15 C30.1045695,15 31,15.8954305 31,17 C31,18.1045695 30.1045695,19 29,19 Z M41,19 C39.8954305,19 39,18.1045695 39,17 C39,15.8954305 39.8954305,15 41,15 C42.1045695,15 43,15.8954305 43,17 C43,18.1045695 42.1045695,19 41,19 Z" id="more-info"></path>
                </g>
            </g>
        </g>
    </g>
</svg>