<?xml version="1.0" encoding="UTF-8"?>
<svg width="18px" height="23px" viewBox="0 0 18 23" version="1.1" xmlns="http://www.w3.org/2000/svg" xmlns:xlink="http://www.w3.org/1999/xlink">
    <!-- Generator: Sketch 57.1 (83088) - https://sketch.com -->
    <title>shop</title>
    <desc>Created with Sketch.</desc>
    <g id="Мобилка" stroke="none" stroke-width="1" fill="none" fill-rule="evenodd">
        <g id="Музыка-Меню" transform="translate(-43.000000, -236.000000)" fill="#8E99A6" fill-rule="nonzero">
            <g id="Menu">
                <path d="M60.6384638,237.694386 C60.8737808,238.030554 61,238.430967 61,238.841311 L61,257 C61,258.104569 60.1045695,259 59,259 L45,259 C43.8954305,259 43,258.104569 43,257 L43,247 C43,245.895431 43.8954305,245 45,245 L51,245 L51,243.041311 C51,242.388684 51.318422,241.777105 51.8530753,241.402847 L57.8530753,237.202847 C58.7579739,236.569418 60.0050348,236.789488 60.6384638,237.694386 Z M51,247 L45,247 L45,257 L51,257 L51,247 Z M59,238.841311 L53,243.041311 L53,257 L59,257 L59,238.841311 Z M49,253 L49,255 L47,255 L47,253 L49,253 Z M57,252 L57,254 L55,254 L55,252 L57,252 Z M49,249 L49,251 L47,251 L47,249 L49,249 Z M57,248 L57,250 L55,250 L55,248 L57,248 Z M57,244 L57,246 L55,246 L55,244 L57,244 Z" id="shop"></path>
            </g>
        </g>
    </g>
</svg>