<?xml version="1.0" encoding="UTF-8"?>
<svg width="19px" height="17px" viewBox="0 0 19 17" version="1.1" xmlns="http://www.w3.org/2000/svg" xmlns:xlink="http://www.w3.org/1999/xlink">
    <!-- Generator: Sketch 56.3 (81716) - https://sketch.com -->
    <title>Like</title>
    <desc>Created with Sketch.</desc>
    <g id="Мобилка" stroke="none" stroke-width="1" fill="none" fill-rule="evenodd">
        <g id="Музыка-Открытый-плейлист-320" transform="translate(-281.000000, -271.000000)" fill="#FFCF60" fill-rule="nonzero">
            <g id="Playlist" transform="translate(19.000000, 80.000000)">
                <g id="2" transform="translate(0.000000, 187.000000)">
                    <path d="M279.473504,5.66581871 C277.407103,3.44502769 274.045497,3.44502769 271.979655,5.66581871 L271.499825,6.18133801 L271.020275,5.66581871 C268.954433,3.4447271 265.592548,3.4447271 263.526706,5.66581871 C261.502808,7.84152057 261.489666,11.2902395 263.496227,13.6880806 C265.326348,15.8743032 270.723876,20.5975422 270.952886,20.7974374 C271.108356,20.9333061 271.295422,20.9994368 271.48137,20.9994368 C271.487522,20.9994368 271.493674,20.9994368 271.499546,20.9991362 C271.691925,21.0087552 271.885702,20.937815 272.046205,20.7974374 C272.275215,20.5975422 277.673302,15.8743032 279.503982,13.68778 C281.510264,11.2902395 281.497122,7.84152057 279.473504,5.66581871 Z" id="Like"></path>
                </g>
            </g>
        </g>
    </g>
</svg>