<?xml version="1.0" encoding="UTF-8"?>
<svg width="19px" height="21px" viewBox="0 0 19 21" version="1.1" xmlns="http://www.w3.org/2000/svg" xmlns:xlink="http://www.w3.org/1999/xlink">
    <!-- Generator: Sketch 57.1 (83088) - https://sketch.com -->
    <title>Home</title>
    <desc>Created with Sketch.</desc>
    <g id="Мобилка" stroke="none" stroke-width="1" fill="none" fill-rule="evenodd">
        <g id="Музыка-Меню" transform="translate(-42.000000, -118.000000)" fill="#FFFFFF" fill-rule="nonzero">
            <g id="Menu">
                <path d="M53.5632339,118.822142 L60.0632339,124.980037 C60.6612572,125.546585 61,126.334118 61,127.157895 L61,135.867499 C61,137.524354 59.6568542,138.867499 58,138.867499 L45,138.867499 C43.3431458,138.867499 42,137.524354 42,135.867499 L42,127.157895 C42,126.334118 42.3387428,125.546585 42.9367661,124.980037 L49.4367661,118.822142 C50.5938547,117.725953 52.4061453,117.725953 53.5632339,118.822142 Z M50.8122554,120.274047 L44.3122554,126.431942 C44.1129143,126.620792 44,126.883302 44,127.157895 L44,135.867499 C44,136.419784 44.4477153,136.867499 45,136.867499 L53,136.867499 L53,130.867499 L55,130.867499 L55,136.867499 L58,136.867499 C58.5522847,136.867499 59,136.419784 59,135.867499 L59,127.157895 C59,126.883302 58.8870857,126.620792 58.6877446,126.431942 L52.1877446,120.274047 C51.8020484,119.908651 51.1979516,119.908651 50.8122554,120.274047 Z M50,130.867499 L50,132.867499 L48,132.867499 L48,130.867499 L50,130.867499 Z" id="Home"></path>
            </g>
        </g>
    </g>
</svg>