<?xml version="1.0" encoding="UTF-8"?>
<svg width="28px" height="4px" viewBox="0 0 28 4" version="1.1" xmlns="http://www.w3.org/2000/svg" xmlns:xlink="http://www.w3.org/1999/xlink">
    <!-- Generator: Sketch 56.3 (81716) - https://sketch.com -->
    <title>more</title>
    <desc>Created with Sketch.</desc>
    <g id="Мобилка" stroke="none" stroke-width="1" fill="none" fill-rule="evenodd">
        <g id="Музыка-Расписание-320" transform="translate(-272.000000, -301.000000)" fill="#8E99A6" fill-rule="nonzero">
            <g id="1" transform="translate(0.000000, 266.000000)">
                <path d="M274,39 C272.895431,39 272,38.1045695 272,37 C272,35.8954305 272.895431,35 274,35 C275.104569,35 276,35.8954305 276,37 C276,38.1045695 275.104569,39 274,39 Z M286,39 C284.895431,39 284,38.1045695 284,37 C284,35.8954305 284.895431,35 286,35 C287.104569,35 288,35.8954305 288,37 C288,38.1045695 287.104569,39 286,39 Z M298,39 C296.895431,39 296,38.1045695 296,37 C296,35.8954305 296.895431,35 298,35 C299.104569,35 300,35.8954305 300,37 C300,38.1045695 299.104569,39 298,39 Z" id="more"></path>
            </g>
        </g>
    </g>
</svg>