<?xml version="1.0" encoding="UTF-8"?>
<svg width="20px" height="21px" viewBox="0 0 20 21" version="1.1" xmlns="http://www.w3.org/2000/svg" xmlns:xlink="http://www.w3.org/1999/xlink">
    <!-- Generator: Sketch 56.3 (81716) - https://sketch.com -->
    <title>block</title>
    <desc>Created with Sketch.</desc>
    <g id="Мобилка" stroke="none" stroke-width="1" fill="none" fill-rule="evenodd">
        <g id="Музыка-Точки-вещания-320" transform="translate(-21.000000, -256.000000)" fill="#8E99A6" fill-rule="nonzero">
            <g id="Groups" transform="translate(0.000000, 80.000000)">
                <g id="1" transform="translate(0.000000, 45.000000)">
                    <path d="M30,144.181981 L29,145.181981 L29,145.332738 C29,145.885023 28.5522847,146.332738 28,146.332738 C27.9521723,146.332738 27.9051289,146.32938 27.8590925,146.322888 L26.3434053,147.838575 C27.6550594,148.77907 29.2628716,149.332738 31,149.332738 C35.418278,149.332738 39,145.751016 39,141.332738 C39,139.593779 38.4451644,137.98441 37.5028631,136.671998 C37.4817387,136.697831 37.4591273,136.722853 37.4350288,136.746952 L32,142.181981 L32,145.332738 C32,145.885023 31.5522847,146.332738 31,146.332738 C30.4477153,146.332738 30,145.885023 30,145.332738 L30,144.181981 Z M30,141.353553 L30,136.332738 C30,135.780453 30.4477153,135.332738 31,135.332738 C31.5522847,135.332738 32,135.780453 32,136.332738 L32,139.353553 L36.0208153,135.332738 C36.0639286,135.289625 36.1099991,135.251271 36.158374,135.217677 C34.7656235,134.041621 32.965596,133.332738 31,133.332738 C26.581722,133.332738 23,136.91446 23,141.332738 C23,143.292595 23.7047494,145.08785 24.8746503,146.478903 L27,144.353553 L27,140.332738 C27,139.780453 27.4477153,139.332738 28,139.332738 C28.5522847,139.332738 29,139.780453 29,140.332738 L29,142.353553 L30,141.353553 Z M31,151.332738 C25.4771525,151.332738 21,146.855586 21,141.332738 C21,135.809891 25.4771525,131.332738 31,131.332738 C36.5228475,131.332738 41,135.809891 41,141.332738 C41,146.855586 36.5228475,151.332738 31,151.332738 Z M34,141.332738 C34.5522847,141.332738 35,141.780453 35,142.332738 L35,145.332738 C35,145.885023 34.5522847,146.332738 34,146.332738 C33.4477153,146.332738 33,145.885023 33,145.332738 L33,142.332738 C33,141.780453 33.4477153,141.332738 34,141.332738 Z" id="block"></path>
                </g>
            </g>
        </g>
    </g>
</svg>