<?xml version="1.0" encoding="UTF-8"?>
<svg width="18px" height="18px" viewBox="0 0 18 18" version="1.1" xmlns="http://www.w3.org/2000/svg" xmlns:xlink="http://www.w3.org/1999/xlink">
    <!-- Generator: Sketch 56.3 (81716) - https://sketch.com -->
    <title>Points</title>
    <desc>Created with Sketch.</desc>
    <g id="Мобилка" stroke="none" stroke-width="1" fill="none" fill-rule="evenodd">
        <g id="Музыка-Финансы-320" transform="translate(-20.000000, -512.000000)" fill="#FFCF60" fill-rule="nonzero">
            <g id="Points" transform="translate(20.000000, 245.000000)">
                <g id="1" transform="translate(0.000000, 45.000000)">
                    <g id="Digital" transform="translate(0.000000, 220.000000)">
                        <path d="M9.98470253,20 L2,20 C0.8954305,20 -2.16715534e-13,19.1045695 -2.16715534e-13,18 L-2.16715534e-13,4 C-2.16715534e-13,2.8954305 0.8954305,2 2,2 L8,2 C9.1045695,2 10,2.8954305 10,4 L10,10 L16,10 C17.1045695,10 18,10.8954305 18,12 L18,18 C18,19.1045695 17.1045695,20 16,20 L10,20 L10,18 L9.98470253,18 L9.98470253,20 Z M10,12 L10,18 L16,18 L16,12 L10,12 Z M8,18 L8,4 L2,4 L2,18 L8,18 Z M4,6 L6,6 L6,8 L4,8 L4,6 Z M4,10 L6,10 L6,12 L4,12 L4,10 Z M4,14 L6,14 L6,16 L4,16 L4,14 Z M12,14 L14,14 L14,16 L12,16 L12,14 Z M10,10 L9.98470253,10 L9.98470253,12 L10,12 L10,10 Z" id="Points"></path>
                    </g>
                </g>
            </g>
        </g>
    </g>
</svg>