<?xml version="1.0" encoding="UTF-8"?>
<svg width="19px" height="19px" viewBox="0 0 19 19" version="1.1" xmlns="http://www.w3.org/2000/svg" xmlns:xlink="http://www.w3.org/1999/xlink">
    <!-- Generator: Sketch 57.1 (83088) - https://sketch.com -->
    <title>Shape</title>
    <desc>Created with Sketch.</desc>
    <g id="Мобилка" stroke="none" stroke-width="1" fill="none" fill-rule="evenodd">
        <g id="Музыка-Меню" transform="translate(-43.000000, -362.000000)" fill="#8E99A6" fill-rule="nonzero">
            <g id="Menu">
                <path d="M61.3763929,379.295667 L56.7763571,374.595333 C57.9591071,373.214 58.6071429,371.476 58.6071429,369.666667 C58.6071429,365.439333 55.1063929,362 50.8035714,362 C46.50075,362 43,365.439333 43,369.666667 C43,373.894 46.50075,377.333333 50.8035714,377.333333 C52.4189107,377.333333 53.95825,376.854667 55.2743393,375.946 L59.9093214,380.682 C60.1030536,380.879667 60.363625,380.988667 60.6428571,380.988667 C60.9071607,380.988667 61.1578929,380.889667 61.3482321,380.709667 C61.7526607,380.327333 61.7655536,379.693333 61.3763929,379.295667 Z M50.8035714,364 C53.9840357,364 56.5714286,366.542 56.5714286,369.666667 C56.5714286,372.791333 53.9840357,375.333333 50.8035714,375.333333 C47.6231071,375.333333 45.0357143,372.791333 45.0357143,369.666667 C45.0357143,366.542 47.6231071,364 50.8035714,364 Z" id="Shape"></path>
            </g>
        </g>
    </g>
</svg>