<?xml version="1.0" encoding="UTF-8"?>
<svg width="23px" height="23px" viewBox="0 0 23 23" version="1.1" xmlns="http://www.w3.org/2000/svg" xmlns:xlink="http://www.w3.org/1999/xlink">
    <!-- Generator: Sketch 57.1 (83088) - https://sketch.com -->
    <title>settings</title>
    <desc>Created with Sketch.</desc>
    <g id="Мобилка" stroke="none" stroke-width="1" fill="none" fill-rule="evenodd">
        <g id="Музыка-Меню" transform="translate(-40.000000, -507.000000)" fill="#8E99A6">
            <g id="Menu">
                <path d="M62.9386037,517.458848 C62.9338809,516.668519 62.362423,516.005967 61.5831622,515.878189 L60.1568789,515.646296 C60.0104723,515.191975 59.8262834,514.747119 59.6090349,514.321193 L60.4638604,513.095473 C60.9125257,512.447119 60.8322382,511.576337 60.2749487,511.027366 L58.8722793,509.640741 C58.3149897,509.09177 57.4459959,509.020782 56.8036961,509.484568 C56.7989733,509.4893 56.7942505,509.4893 56.7895277,509.494033 L51.4149897,513.521399 L51.3960986,513.521399 C51.386653,513.521399 51.3724846,513.521399 51.363039,513.521399 C50.0359343,513.549794 48.7985626,514.098765 47.8823409,515.059465 C46.9661191,516.020165 46.4796715,517.283745 46.5080082,518.61358 C46.5694045,521.320576 48.7843943,523.478601 51.476386,523.478601 C51.5141684,523.478601 51.5519507,523.478601 51.5897331,523.478601 C54.3289528,523.417078 56.5061602,521.131276 56.4447639,518.38642 C56.4305955,517.837449 56.3314168,517.297942 56.1425051,516.786831 C55.9819302,516.346708 55.4907598,516.119547 55.05154,516.280453 C54.6123203,516.441358 54.3856263,516.933539 54.5462012,517.373663 C54.6689938,517.709671 54.7351129,518.064609 54.7445585,518.42428 C54.7870637,520.232099 53.3513347,521.732305 51.5519507,521.774897 C51.5283368,521.774897 51.5,521.774897 51.476386,521.774897 C49.7100616,521.774897 48.2507187,520.355144 48.2082136,518.57572 C48.1893224,517.700206 48.5104723,516.872016 49.1102669,516.23786 C49.7100616,515.608436 50.5176591,515.248765 51.3819302,515.225103 L51.6747433,515.229835 C51.863655,515.234568 52.0478439,515.173045 52.1989733,515.059465 L57.7293634,510.913786 L59.0186858,512.186831 L58.1969199,513.360494 C57.8427105,513.866872 57.8002053,514.529424 58.0835729,515.08786 C58.263039,515.442798 58.4188912,515.807202 58.536961,516.18107 C58.7305955,516.786831 59.2359343,517.222222 59.8593429,517.321605 L61.2336756,517.544033 L61.2478439,519.380247 L59.8310062,519.63107 C59.2217659,519.739918 58.7258727,520.180041 58.536961,520.776337 C58.4188912,521.145473 58.2677618,521.509877 58.0882957,521.869547 C57.8002053,522.437449 57.8521561,523.104733 58.2205339,523.611111 L59.037577,524.742181 L57.7671458,526.034156 L56.5958932,525.2107 C56.0858316,524.855761 55.4246407,524.813169 54.8673511,525.097119 C54.5320329,525.272222 54.1825462,525.41893 53.823614,525.537243 C53.2238193,525.736008 52.7940452,526.242387 52.6948665,526.862346 L52.4728953,528.263169 L50.6404517,528.277366 L50.3948665,526.881276 C50.2862423,526.266049 49.8470226,525.764403 49.2472279,525.575103 C48.8646817,525.45679 48.4963039,525.30535 48.1420945,525.130247 C47.5800821,524.846296 46.9188912,524.898354 46.4135524,525.262757 L45.2659138,526.095679 L43.9765914,524.822634 L44.7889117,523.658436 C45.1478439,523.147325 45.1856263,522.480041 44.8975359,521.926337 C44.7180698,521.576132 44.5622177,521.206996 44.4347023,520.828395 C44.236345,520.232099 43.7310062,519.796708 43.1170431,519.697325 L41.7190965,519.474897 L41.7002053,517.652881 L43.1028747,517.40679 C43.7168378,517.297942 44.2174538,516.857819 44.4063655,516.25679 C44.5244353,515.873457 44.6755647,515.504321 44.850308,515.149383 C45.1336756,514.586214 45.0817248,513.923663 44.7180698,513.417284 L43.8868583,512.267284 L45.1572895,510.975309 L46.3143737,511.784568 C46.8291581,512.144239 47.4950719,512.182099 48.0523614,511.888683 C48.4112936,511.699383 48.789117,511.54321 49.176386,511.420165 C49.7856263,511.226132 50.2295688,510.719753 50.3287474,510.090329 L50.5507187,508.717901 L52.4587269,508.703704 C52.9262834,508.698971 53.3041068,508.315638 53.3041068,507.847119 C53.299384,507.378601 52.9215606,507 52.4540041,507 L50.4657084,507.014198 C49.6770021,507.01893 49.0158111,507.591564 48.8882957,508.372428 L48.6568789,509.796914 C48.1845996,509.948354 47.7170431,510.142387 47.2778234,510.37428 L46.0687885,509.52716 C45.4217659,509.077572 44.5527721,509.158025 44.0049281,509.716461 L42.6211499,511.122016 C42.073306,511.680453 42.0024641,512.551235 42.4652977,513.194856 L43.324846,514.392181 C43.1123203,514.818107 42.9328542,515.267695 42.7864476,515.726749 L41.3412731,515.987037 C40.5950719,516.12428 40.0330595,516.772634 40,517.529835 C40,517.544033 40,517.55823 40,517.572428 L40.0141684,519.560082 C40.0188912,520.350412 40.5903491,521.012963 41.3696099,521.140741 L42.8195072,521.372634 C42.9706366,521.831687 43.1595483,522.276543 43.3767967,522.697737 L42.5314168,523.909259 C42.0827515,524.557613 42.163039,525.428395 42.7203285,525.977366 L44.1229979,527.363992 C44.6802875,527.912963 45.5492813,527.979218 46.1915811,527.520165 L47.3864476,526.658848 C47.811499,526.871811 48.2601643,527.051646 48.7182752,527.198354 L48.973306,528.651235 C49.1102669,529.422634 49.7761807,529.98107 50.5601643,529.98107 C50.5648871,529.98107 50.5696099,529.98107 50.5743326,529.98107 L52.5579055,529.966872 C53.3466119,529.96214 54.0078029,529.389506 54.1353183,528.608642 L54.3667351,527.155761 C54.7965092,527.009053 55.2215606,526.829218 55.6324435,526.620988 L56.8556468,527.477572 C57.5026694,527.92716 58.3716632,527.846708 58.9195072,527.288272 L60.3032854,525.882716 C60.8558522,525.32428 60.9219713,524.453498 60.4591376,523.809877 L59.6090349,522.631481 C59.8262834,522.196091 60.0104723,521.751235 60.1568789,521.306379 L61.6256674,521.046091 C62.4002053,520.908848 62.9622177,520.232099 62.9528894,519.446502 L62.9386037,517.458848 Z" id="settings"></path>
            </g>
        </g>
    </g>
</svg>