<?xml version="1.0" encoding="UTF-8"?>
<svg width="9px" height="7px" viewBox="0 0 9 7" version="1.1" xmlns="http://www.w3.org/2000/svg" xmlns:xlink="http://www.w3.org/1999/xlink">
    <!-- Generator: Sketch 56.3 (81716) - https://sketch.com -->
    <title>mini Like</title>
    <desc>Created with Sketch.</desc>
    <g id="Мобилка" stroke="none" stroke-width="1" fill="none" fill-rule="evenodd">
        <g id="Музыка-Открытый-плейлист-320" transform="translate(-96.000000, -230.000000)" fill="#8E99A6" fill-rule="nonzero">
            <g id="Playlist" transform="translate(19.000000, 80.000000)">
                <g id="1" transform="translate(0.000000, 92.000000)">
                    <path d="M84.8572647,58.6859254 C83.9872012,57.771482 82.5717881,57.771482 81.7019601,58.6859254 L81.4999264,58.898198 L81.2980105,58.6859254 C80.4281825,57.7713582 79.0126516,57.7713582 78.1428236,58.6859254 C77.2906559,59.5818026 77.2851224,61.0018633 78.1299905,61.9892096 C78.9005677,62.889419 81.1732111,64.8342821 81.2696363,64.9165919 C81.3350971,64.9725378 81.413862,64.9997681 81.4921559,64.9997681 C81.4947461,64.9997681 81.4973362,64.9997681 81.4998087,64.9996443 C81.5808105,65.0036051 81.6624011,64.9743944 81.7299811,64.9165919 C81.8264062,64.8342821 84.0992852,62.889419 84.8700978,61.9890859 C85.7148482,61.0018633 85.7093146,59.5818026 84.8572647,58.6859254 Z" id="mini-Like"></path>
                </g>
            </g>
        </g>
    </g>
</svg>