<?xml version="1.0" encoding="UTF-8"?>
<svg width="20px" height="19px" viewBox="0 0 20 19" version="1.1" xmlns="http://www.w3.org/2000/svg" xmlns:xlink="http://www.w3.org/1999/xlink">
    <!-- Generator: Sketch 56.3 (81716) - https://sketch.com -->
    <title>Sound settings</title>
    <desc>Created with Sketch.</desc>
    <g id="Мобилка" stroke="none" stroke-width="1" fill="none" fill-rule="evenodd">
        <g id="Музыка-Точки-вещания-320" transform="translate(-251.000000, -155.000000)" stroke="#8E99A6" stroke-width="2">
            <g id="Groups" transform="translate(0.000000, 80.000000)">
                <g id="1" transform="translate(0.000000, 45.000000)">
                    <path d="M268,35.5242938 L268,35.8778819 L267.333246,36.1135456 C266.540896,36.393601 266,37.1454758 266,38 C266,38.8545242 266.540896,39.606399 267.333246,39.8864544 L268,40.1221181 L268,40.4757062 L268,40.1221181 L268.666754,39.8864544 C269.459104,39.606399 270,38.8545242 270,38 C270,37.1454758 269.459104,36.393601 268.666754,36.1135456 L268,35.8778819 L268,35.5242938 Z M268,40.4757062 L268,44.4146471 L268,40.4757062 Z M268,44.4146471 L268,48 L268,44.4146471 Z M261,41.5242938 L261,41.8778819 L260.333246,42.1135456 C259.540896,42.393601 259,43.1454758 259,44 C259,44.8545242 259.540896,45.606399 260.333246,45.8864544 L261,46.1221181 L261,46.4757062 L261,46.1221181 L261.666754,45.8864544 C262.459104,45.606399 263,44.8545242 263,44 C263,43.1454758 262.459104,42.393601 261.666754,42.1135456 L261,41.8778819 L261,41.5242938 Z M261,46.4757062 L261,47.4146471 L261,46.4757062 Z M261,47.4146471 L261,48 L261,47.4146471 Z M254,32.5242938 L254,32.8778819 L253.333246,33.1135456 C252.540896,33.393601 252,34.1454758 252,35 C252,35.8545242 252.540896,36.606399 253.333246,36.8864544 L254,37.1221181 L254,37.4757062 L254,37.1221181 L254.666754,36.8864544 C255.459104,36.606399 256,35.8545242 256,35 C256,34.1454758 255.459104,33.393601 254.666754,33.1135456 L254,32.8778819 L254,32.5242938 Z M254,37 C252.895431,37 252,36.1045695 252,35 C252,33.8954305 252.895431,33 254,33 C255.104569,33 256,33.8954305 256,35 C256,36.1045695 255.104569,37 254,37 Z M261,46 C259.895431,46 259,45.1045695 259,44 C259,42.8954305 259.895431,42 261,42 C262.104569,42 263,42.8954305 263,44 C263,45.1045695 262.104569,46 261,46 Z M268,40 C266.895431,40 266,39.1045695 266,38 C266,36.8954305 266.895431,36 268,36 C269.104569,36 270,36.8954305 270,38 C270,39.1045695 269.104569,40 268,40 Z" id="Sound-settings"></path>
                </g>
            </g>
        </g>
    </g>
</svg>