<?xml version="1.0" encoding="UTF-8"?>
<svg width="45px" height="45px" viewBox="0 0 45 45" version="1.1" xmlns="http://www.w3.org/2000/svg" xmlns:xlink="http://www.w3.org/1999/xlink">
    <!-- Generator: Sketch 57.1 (83088) - https://sketch.com -->
    <title>Login</title>
    <desc>Created with Sketch.</desc>
    <g id="Мобилка" stroke="none" stroke-width="1" fill="none" fill-rule="evenodd">
        <g id="Музыка-Меню" transform="translate(-20.000000, -18.000000)">
            <g id="Menu">
                <g id="Login" transform="translate(20.000000, 18.000000)">
                    <circle id="Oval" fill="#4C5258" fill-rule="nonzero" cx="22.5" cy="22.5" r="22.5"></circle>
                    <g id="Group" transform="translate(2.000000, 1.988667)">
                        <path d="M37,33.7711097 C32.9680876,38.9834537 26.9051434,42.0113333 20.5,42.0113333 C14.0948566,42.0113333 8.03191235,38.9834537 4,33.7711097 C4.50283448,33.2086047 5.10299746,32.7511121 5.76865672,32.4228972 C6.59701493,31.860165 7.42537313,31.2857092 8.24253731,30.6995299 C9.11805496,30.0023505 10.1139044,29.488832 11.1753731,29.1871871 C11.3570607,29.1517704 11.5338055,29.092694 11.7014925,29.0113333 L29.2985075,29.0113333 C29.4661945,29.092694 29.6429393,29.1517704 29.8246269,29.1871871 C29.9365672,29.2106343 30.0597015,29.2458051 30.1716418,29.2809758 C31.1009246,29.60484 31.9741226,30.0838672 32.7574627,30.6995299 C33.5746269,31.2857092 34.4029851,31.860165 35.2313433,32.4228972 C35.8970025,32.7511121 36.4971655,33.2086047 37,33.7711097 Z" id="Shape" fill="#5F6A76"></path>
                        <path d="M35,33.350239 C28.9639945,40.5355292 18.734866,42.9801116 9.93377001,39.3406286 C7.66375192,38.0708885 5.65278576,36.4105252 4,34.4413846 C4.50673809,33.9178462 5.11156028,33.4920456 5.78238719,33.1865671 C6.61717613,32.6628172 7.45196507,32.1281559 8.27547307,31.5825831 C9.15778756,30.9336996 10.161368,30.4557541 11.2310771,30.1750052 C11.4141752,30.1420419 11.5922921,30.0870579 11.7612809,30.0113333 L29.4949054,30.0113333 C29.6638942,30.0870579 29.8420111,30.1420419 30.0251092,30.1750052 C30.1379185,30.1968281 30.2620087,30.2295625 30.374818,30.2622968 C30.4876274,30.338677 30.6117176,30.4150572 30.7245269,30.4914374 C31.5480349,31.0370102 32.3828239,31.5716716 33.2176128,32.0954215 C33.8884397,32.4009 34.4932619,32.8267006 35,33.350239 Z" id="Shape" fill="#6B737B"></path>
                        <path d="M39,20.8379828 C39.0042523,24.9819563 37.7549193,29.0328583 35.4119963,32.4718767 C34.7322833,32.0320319 34.0414276,31.581191 33.3728575,31.1303502 C32.5013439,30.476432 31.5100489,29.9947781 30.4534347,29.7118508 C30.272578,29.6786317 30.0966416,29.6232211 29.9297215,29.546909 C28.879293,29.0816421 27.9296639,28.4208006 27.1328699,27.6005959 C26.6498407,28.0866885 26.2099441,28.6127644 25.8180154,29.173041 C25.0766349,28.7366645 24.3950691,28.2081997 23.7900194,27.6005959 C21.7397378,29.634878 21.5168811,31.5701949 19.5111708,31.8121095 L19.4888851,31.8121095 C17.4831748,31.5701949 17.2603181,29.634878 15.2100365,27.6005959 C14.6049868,28.2081997 13.923421,28.7366645 13.1820405,29.173041 C12.9396798,29.3238019 12.6819899,29.4491078 12.4131849,29.546909 C12.2462648,29.6232211 12.0703283,29.6786317 11.8894717,29.7118508 C10.8328575,29.9947781 9.84156244,30.476432 8.97004889,31.1303502 C8.15662194,31.6801561 7.33205215,32.2189659 6.50748236,32.7467796 C5.84486744,33.0546283 5.24744925,33.4837327 4.74691444,34.0113333 C4.33462954,33.516508 3.95577315,32.9996904 3.5880596,32.4718767 C-0.599851003,26.3099832 -1.16148947,18.4183447 2.11254597,11.7392861 C5.38658136,5.06022747 12.0049402,0.596107899 19.5000279,0.0113333333 C30.5085925,0.874010759 38.997222,9.94016783 39,20.8379828 Z" id="Shape" fill="#4C5258"></path>
                        <path d="M11.9255732,24.0113333 C11.6239202,24.0117887 11.33603,23.8767365 11.132471,23.6392801 L8.40436257,20.4592492 C7.50359963,19.629009 6.9916394,18.4175332 7.00496627,17.1477912 C6.90073719,14.9867124 8.4496157,13.1402218 10.4747214,13.0113333 L11.312619,13.0113333 C11.9058984,13.0113333 12.3868466,13.5243404 12.3868466,14.1571665 C12.3868466,14.7899927 11.9058984,15.3029998 11.312619,15.3029998 L10.4747214,15.3029998 C9.64668488,15.4492814 9.06804767,16.2571714 9.15342148,17.1477912 C9.14022717,17.7502916 9.37988885,18.3276178 9.80698155,18.7221661 C9.85315787,18.7606232 9.89627393,18.8030873 9.93588886,18.8491244 L12.7181384,22.0918324 C13.0057038,22.4269296 13.0805172,22.9115939 12.9088534,23.3273437 C12.7371896,23.7430933 12.35147,24.0113333 11.9255732,24.0113333 Z" id="Shape" fill="#727A82"></path>
                        <path d="M29.0740666,24.0113333 C28.6481919,24.0112222 28.2625845,23.7428065 28.0910355,23.3270588 C27.9194867,22.9113112 27.9943874,22.426732 28.2819807,22.0917182 L31.0644336,18.84901 C31.1040514,18.802973 31.1471706,18.7605089 31.1933503,18.7220517 C31.6202452,18.3274204 31.8597181,17.750159 31.8464211,17.1477914 C31.9318011,16.2571715 31.3531216,15.4492815 30.5250245,15.3029999 L29.6870657,15.3029999 C29.0937428,15.3029999 28.6127595,14.7899928 28.6127595,14.1571666 C28.6127595,13.5243404 29.0937428,13.0113333 29.6870657,13.0113333 L30.5250245,13.0113333 C32.5502783,13.1402218 34.0992701,14.9867125 33.9950334,17.1477914 C34.0083612,18.4175335 33.4963635,19.6290092 32.5955347,20.4592495 L29.8667971,23.6393952 C29.6633049,23.8766913 29.3755757,24.0116896 29.0740666,24.0113333 Z" id="Shape" fill="#727A82"></path>
                        <path d="M26.0533365,27.0113333 C26.8608648,27.8509052 27.8207741,28.5296072 28.8819984,29.0113333 C29.2527455,30.9665468 28.7401338,32.9854789 27.4812915,34.5280475 C26.2224491,36.070616 24.3458302,36.9794153 22.3534467,37.0113333 L17.6465533,37.0113333 C15.6541698,36.9794153 13.7775509,36.070616 12.5187085,34.5280475 C11.2598662,32.9854789 10.7472545,30.9665468 11.1180016,29.0113333 C12.1792259,28.5296072 13.1391352,27.8509052 13.9466635,27.0113333 L26.0533365,27.0113333 Z" id="Shape" fill="#7F868C"></path>
                        <path d="M29.2915165,20.6760177 C29.2915165,23.0054897 29.9327872,25.0101796 27.3789551,27.3396516 C27.2552011,27.4628448 27.1314471,27.5748386 27.0189435,27.6980319 C24.8138726,29.9043107 24.701369,32.009795 22.2712909,32.009795 L19.7287091,32.009795 C18.8209774,32.0401163 17.9571525,31.6206476 17.422385,30.8898565 C16.6933252,29.7642671 15.877067,28.6970804 14.9810565,27.6980319 C14.8685529,27.5748386 14.7447989,27.4628448 14.6210449,27.3396516 C12.0672128,25.0101796 12.7084835,23.0054897 12.7084835,20.6760177 C12.7084835,18.3465457 11.7409524,17.6745826 12.0672128,11.0109487 C12.382223,4.34731487 20.3587294,4.01133333 20.3587294,4.01133333 L21.6412706,4.01133333 C22.7231737,4.09328456 23.7897104,4.31541416 24.8138726,4.67209703 C27.7219237,5.45428512 29.7903185,8.01561878 29.9327872,11.0109487 C30.2590476,17.6745826 29.2915165,18.3465457 29.2915165,20.6760177 Z" id="Shape" fill="#9DA5AD"></path>
                        <path d="M26.3252508,18.6263333 C26.3252508,20.9663333 26.9359875,22.9800833 24.5037553,25.3200833 C24.3858938,25.4438333 24.2680323,25.5563333 24.1608855,25.6800833 C22.0608084,27.8963333 21.9536616,30.0113333 19.6392908,30.0113333 L17.1641999,30.0113333 C16.4698541,28.8806568 15.6924618,27.808647 14.8391145,26.8050833 C14.7319677,26.6813333 14.6141062,26.5688333 14.4962447,26.4450833 C12.0640125,24.1050833 12.6747492,22.0913333 12.6747492,19.7513333 C12.6747492,17.4113333 11.7532868,16.7363333 12.0640125,10.0425833 C12.3640235,3.34883333 19.9607312,3.01133333 19.9607312,3.01133333 L21.1822047,3.01133333 C22.2125933,3.09365494 23.2283472,3.31678845 24.2037442,3.67508333 C25.8752912,4.84918767 26.8953547,6.80643758 26.9359875,8.91758333 C27.2467132,15.6113333 26.3252508,16.2863333 26.3252508,18.6263333 Z" id="Shape" fill="#8F969D"></path>
                        <path d="M21.2567925,33.0113333 L18.7424321,33.0113333 C16.5996875,33.0113333 15.7137908,31.6913333 14.8570253,30.4147778 C14.3260538,29.5636792 13.6912244,28.7824141 12.9672674,28.0891111 C11.1670377,26.5147431 10.3053599,24.1191581 10.6887252,21.7544444 C10.7054507,21.3958889 10.7232838,21.0307778 10.7232838,20.6564444 C10.7111489,20.0115084 10.6348599,19.3693986 10.4955514,18.7396667 C10.0199963,16.1935546 9.88589082,13.5950954 10.0967983,11.0133333 C10.3829037,4.98 16.2586428,3.14122222 19.3251656,3.01211111 L20.6283132,3.01133333 C23.7408034,3.14155556 29.6170963,4.98022222 29.9032017,11.0142222 L29.9032017,11.0136667 C30.1141092,13.5954288 29.9800037,16.1938879 29.5044486,18.74 C29.3651401,19.3697319 29.2888511,20.0118418 29.2767162,20.6567778 C29.2767162,21.0311111 29.2945493,21.3962222 29.3113855,21.7547778 C29.6944351,24.1194534 28.8326103,26.514855 27.0324003,28.0891111 C26.3083094,28.7822842 25.673331,29.5634374 25.1421994,30.4144444 C24.2854338,31.6913333 23.3995371,33.0113333 21.2567925,33.0113333 Z M19.3713545,5.23355556 C19.14041,5.24544444 12.5703972,5.61388889 12.3095462,11.1195556 C12.1057664,13.5287018 12.2280534,15.954433 12.6730762,18.3306667 C12.8385533,19.095357 12.9276058,19.8746938 12.9389117,20.6571111 C12.9389117,21.0666667 12.9205247,21.4671111 12.9021377,21.8604444 C12.8193965,23.6138889 12.7599158,24.8812222 14.4656933,26.4524444 C15.3193164,27.2629646 16.068445,28.1774807 16.6956098,29.1746667 C17.5187029,30.4002222 17.8229737,30.7891111 18.7428752,30.7891111 L21.2572356,30.7891111 C22.1771371,30.7891111 22.4810756,30.4002222 23.3048333,29.174 C23.931998,28.176814 24.6811267,27.2622979 25.5347497,26.4517778 C27.2405273,24.8805556 27.1810466,23.6132222 27.0983053,21.8597778 C27.0799184,21.4664444 27.0615314,21.066 27.0615314,20.6564444 C27.0728373,19.8740271 27.1618897,19.0946903 27.3273669,18.33 C27.7723474,15.954061 27.8946345,13.5286291 27.6908969,11.1197778 L27.6908969,11.1192222 C27.4286059,5.58422222 20.8621376,5.24411111 20.5825673,5.23211111 L19.3713545,5.23355556 Z" id="Shape" fill="#7C838A" fill-rule="nonzero"></path>
                        <path d="M22.3245756,38.0113333 L17.6755112,38.0113333 C15.3821126,38.0142335 13.2077028,36.9968847 11.7482893,35.2381368 C10.3037786,33.5139105 9.71121535,31.2375272 10.1330747,29.0331498 L10.164143,28.8807193 C10.2510035,28.4932804 10.5391815,28.1813399 10.9201231,28.0624027 C11.3010647,27.9434655 11.7168958,28.035601 12.0109769,28.3041028 C12.305058,28.5726045 12.4327111,28.9766806 12.3458505,29.3641194 C12.0242673,30.9423163 12.4373997,32.580458 13.469896,33.8211555 C14.505286,35.0692794 16.0481587,35.7913163 17.6755112,35.7893085 L22.3245756,35.7893085 C23.9519281,35.7913163 25.4948008,35.0692794 26.5301908,33.8211555 C27.5490613,32.6062007 27.967654,31.0017677 27.6712232,29.4476673 C27.5340615,28.8421624 27.9057371,28.2378997 28.5104017,28.0833479 C28.7927291,28.010795 29.0925582,28.0545028 29.3420474,28.2045813 C29.5915366,28.3546599 29.7695986,28.5984246 29.8359438,28.8807193 L29.8664533,29.0299278 C30.289207,31.2352497 29.6968231,33.5129132 28.2517974,35.2381368 C26.7923839,36.9968847 24.6179742,38.0142335 22.3245756,38.0113333 Z" id="Shape" fill="#676D73"></path>
                    </g>
                </g>
            </g>
        </g>
    </g>
</svg>